<?xml version="1.0" encoding="utf-8"?>
<svg viewBox="0 0 500 500" xmlns="http://www.w3.org/2000/svg">
  <path style="fill: rgb(216, 216, 216); stroke: rgb(0, 0, 0);" d="M 66.948 110.374 C 68.506 115.048 68.658 120.534 69.361 125.452 C 69.54 126.709 68.516 131.243 69.361 132.087 C 71.167 133.893 70.616 137.159 71.17 139.928 C 73.552 151.837 75.392 163.239 75.392 176.116 C 75.392 181.73 79.087 191.043 76.598 196.019 C 72.154 204.908 78.435 219.431 75.995 229.192 C 75.049 232.978 72.823 239.132 74.186 241.858 C 76.934 247.354 94.668 245.476 100.724 245.476 C 110.031 245.476 125.701 242.585 133.896 246.683 C 135.707 247.588 138.039 246 139.324 247.286 C 141.19 249.151 147.431 246.948 149.578 249.095 C 151.256 250.774 158.951 248.655 161.037 249.698 C 166.058 252.209 182.945 251.313 186.369 247.889 C 189.874 244.384 186.825 234.615 189.988 230.398 C 197.637 220.2 198.194 204.574 202.051 193.004 C 206.375 180.03 218.473 162.106 227.382 153.197 C 231.556 149.023 237.675 138.801 234.017 131.484 C 233.352 130.153 229.699 129.578 228.589 128.468 C 224.411 124.291 217.97 123.159 212.907 120.627 C 198.872 113.61 183.169 115.199 166.466 115.199 C 160.588 115.199 152.324 113.826 147.165 116.405 C 141.894 119.041 132.889 114.53 127.262 116.405 C 121.729 118.249 105.793 118.899 100.121 117.008 C 89.523 113.476 75.911 109.771 64.536 109.771"/>
  <path style="fill: rgb(216, 216, 216); stroke: rgb(0, 0, 0);" d="M 151.387 114.596 C 152.987 108.997 155.674 104.149 157.419 98.914 C 159.001 94.167 156.34 88.405 158.625 83.836 C 162.242 76.602 167.915 68.092 171.894 62.123 C 174.59 58.078 171.899 48.849 175.513 45.235 C 177.357 43.391 179.163 25.363 176.719 22.919 C 173.705 19.905 168.273 22.918 164.656 21.713 C 156.937 19.14 147.98 19.549 139.324 21.713 C 133.431 23.186 127.493 21.482 123.04 25.935 C 119.643 29.331 113.307 29.91 115.802 37.394 C 119.822 49.454 131.98 54.885 144.15 54.885 C 145.899 54.885 153.224 56.064 154.403 54.885 C 162.984 46.304 172.039 36.646 180.941 27.744 C 184.65 24.036 195.211 24.729 200.241 24.729 C 206.072 24.729 211.902 24.729 217.732 24.729 C 218.541 24.729 222.644 24.212 223.16 24.729 C 229.476 31.044 235.573 37.316 241.255 45.838 C 248.216 56.28 230.327 63.932 222.557 63.932 C 221.195 63.932 217.042 64.678 215.923 63.932 C 208.345 58.88 199.035 56.997 191.194 53.076 C 189.976 52.467 190.383 49.815 188.782 48.854 C 186.673 47.589 183.29 48.187 181.544 46.441 C 177.815 42.713 179.47 35.923 176.116 32.569"/>
</svg>